<?xml version="1.0" encoding="UTF-8" standalone="no"?>
<!-- Created with Inkscape (http://www.inkscape.org/) -->

<svg
   width="100"
   height="100"
   viewBox="0 0 26.458333 26.458333"
   version="1.1"
   id="svg1"
   inkscape:version="1.4.2 (f4327f4, 2025-05-13)"
   sodipodi:docname="icon_corpus_c02.svg"
   xmlns:inkscape="http://www.inkscape.org/namespaces/inkscape"
   xmlns:sodipodi="http://sodipodi.sourceforge.net/DTD/sodipodi-0.dtd"
   xmlns="http://www.w3.org/2000/svg"
   xmlns:svg="http://www.w3.org/2000/svg">
  <sodipodi:namedview
     id="namedview1"
     pagecolor="#ffffff"
     bordercolor="#666666"
     borderopacity="1.0"
     inkscape:showpageshadow="2"
     inkscape:pageopacity="0.0"
     inkscape:pagecheckerboard="0"
     inkscape:deskcolor="#d1d1d1"
     inkscape:document-units="mm"
     inkscape:zoom="7.4566191"
     inkscape:cx="55.319977"
     inkscape:cy="51.162597"
     inkscape:window-width="2400"
     inkscape:window-height="1271"
     inkscape:window-x="2391"
     inkscape:window-y="-9"
     inkscape:window-maximized="1"
     inkscape:current-layer="layer1" />
  <defs
     id="defs1" />
  <g
     inkscape:label="Calque 1"
     inkscape:groupmode="layer"
     id="layer1">
    <path
       style="fill:#ffffff;stroke-width:0.354538"
       d="M 13.737381,19.940362 C 13.118264,19.871308 11.683063,19.7041 10.54802,19.568671 8.0383474,19.269242 5.6241464,19.171157 4.6463009,19.328914 3.8093473,19.463969 3.3386214,19.367259 2.9747861,18.985982 2.4092839,18.393214 2.2849175,17.527892 2.4879587,15.599127 2.6755263,13.817566 2.6204692,11.922175 2.3430626,10.612408 2.0486722,9.2221173 2.1298582,8.310527 2.5553168,8.2292223 2.6689941,8.2075048 3.8807944,8.1416738 5.2479933,8.0831384 6.6151924,8.0246031 8.6848494,7.9009832 9.8472424,7.8086162 l 2.1134136,-0.167971 0.592428,-0.4361137 c 0.750644,-0.5526076 1.564811,-0.8133528 2.539603,-0.8133528 0.725006,0 1.574549,0.2143751 2.028648,0.5119212 0.112659,0.073805 0.431431,0.1471019 0.708566,0.162881 l 0.503845,0.028843 0.04683,0.4690292 c 0.02681,0.2677186 0.154228,0.6501834 0.296851,0.8911284 0.537558,0.9078577 0.695162,2.1705075 0.398481,3.1923815 -0.251804,0.867308 -0.268872,1.201467 -0.07245,1.419219 0.09603,0.106382 0.538559,0.443002 0.983597,0.748031 1.010032,0.692312 1.99648,1.527365 3.29481,2.789149 0.923315,0.897288 1.008403,1.009251 1.008403,1.326665 0,0.598639 -0.66094,1.094306 -1.156014,0.866934 -0.357031,-0.163899 -2.234658,-1.720158 -3.182456,-2.637619 l -0.914593,-0.885343 -0.0085,0.928761 c -0.0051,0.510818 -0.03682,1.160934 -0.07041,1.444686 -0.06668,0.563161 -0.01357,0.525512 -1.018634,0.713351 -0.189502,0.03546 -0.209455,0.100443 -0.234515,0.764878 l -0.02732,0.726195 -0.328324,0.11198 c -0.429293,0.146424 -2.188458,0.134886 -3.611478,-0.02375 z m 3.517686,-0.989332 v -0.572815 l -4.619897,0.03546 c -5.3768526,0.04123 -6.0608506,0.134207 -2.9078826,0.395563 1.1221136,0.09298 3.0743936,0.287078 4.3384006,0.431278 1.264024,0.144218 2.49873,0.266955 2.743798,0.272792 l 0.445581,0.01018 z M 6.0168254,18.261196 c 1.685359,-0.276287 3.231829,-0.351331 7.6267466,-0.370046 2.476452,-0.01018 4.576497,-0.05311 4.666794,-0.09451 0.146762,-0.06719 0.164238,-0.240605 0.164238,-1.632881 v -1.557634 l -0.386011,-0.393323 -0.386011,-0.393307 -0.424932,0.269483 c -0.698709,0.443104 -1.288864,0.60288 -2.226922,0.60288 -0.975793,0 -1.583491,-0.17469 -2.311145,-0.664367 -0.444648,-0.299226 -0.52373,-0.319501 -1.239405,-0.317788 -0.870548,0.0017 -2.4134546,0.192081 -3.4121006,0.420182 -0.72253,0.165087 -0.870039,0.140824 -0.870039,-0.142521 0,-0.12725 0.100782,-0.204806 0.351772,-0.27045 0.734627,-0.192115 1.954741,-0.387012 2.7329036,-0.436538 0.444513,-0.02833 0.941656,-0.0716 1.104723,-0.09603 l 0.296529,-0.04462 -0.311273,-0.597163 c -0.171194,-0.328441 -0.358117,-0.844333 -0.41538,-1.146426 -0.05718,-0.302093 -0.182579,-0.85073 -0.278459,-1.219198 -0.183393,-0.7046467 -0.148628,-0.9182753 0.140316,-0.8626243 0.134037,0.02579 0.235855,-0.095523 0.436639,-0.5200143 0.144048,-0.3045365 0.248597,-0.5669445 0.232394,-0.5831477 -0.01697,-0.016967 -0.766524,0.029183 -1.6673576,0.1009522 -0.900833,0.071769 -2.545439,0.1758775 -3.654692,0.2315115 -2.7970049,0.1403152 -3.194129,0.1662743 -3.2396169,0.2117283 -0.021887,0.021887 0.074993,0.5858454 0.2150367,1.2532843 0.2498187,1.189811 0.2548239,1.279582 0.2560794,4.590511 9.502e-4,2.576929 0.029862,3.426981 0.1218214,3.58803 0.109775,0.192216 0.189383,0.210913 0.8911454,0.20942 0.4238128,-0.0011 1.137639,-0.06176 1.586257,-0.135394 z m 2.828207,-2.16518 c -0.142691,-0.37164 0.465704,-0.598978 2.1520126,-0.804293 1.0563,-0.128608 1.708486,-0.03376 1.708486,0.248394 0,0.170346 -0.09077,0.189671 -1.172556,0.249581 -1.025506,0.05684 -1.5955546,0.15287 -2.4143366,0.4071 -0.153889,0.04768 -0.226931,0.02087 -0.273606,-0.100782 z m -2.733974,-4.001493 c -0.152022,-0.152022 -0.152022,-1.686547 0,-1.838569 0.175691,-0.175708 0.274302,-0.143879 1.106895,0.356454 0.429208,0.257963 0.792823,0.46903 0.808025,0.46903 0.01527,0 0.04004,-0.28494 0.05531,-0.633183 0.02528,-0.5757167 0.047,-0.6359148 0.239214,-0.6632143 0.288622,-0.04106 0.314191,0.080253 0.233582,1.1076923 -0.05616,0.715472 -0.100104,0.895828 -0.223877,0.919531 -0.08466,0.01697 -0.506848,-0.201294 -0.938058,-0.483349 -0.886022,-0.579551 -0.992437,-0.555611 -0.888872,0.199987 0.0755,0.550996 -0.121991,0.835868 -0.392289,0.565621 z m 2.952658,-0.306386 c -0.128099,-0.128099 -0.157281,-0.348429 -0.157281,-1.185383 0,-1.1302411 -0.03801,-1.0655129 0.680791,-1.1617484 0.369146,-0.049373 0.4568806,-0.032067 0.5077126,0.1002735 0.07465,0.1944392 -0.1923346,0.4144133 -0.5028936,0.4144133 -0.170007,0 -0.216581,0.051749 -0.216581,0.2408266 0,0.192047 0.03529,0.229628 0.174367,0.185498 0.246629,-0.07822 0.4524526,0.180865 0.294645,0.371012 -0.0643,0.07737 -0.196034,0.140654 -0.292897,0.140654 -0.134716,0 -0.176115,0.06888 -0.176115,0.293525 v 0.293542 l 0.551488,-0.06244 c 0.4254066,-0.04819 0.5628376,-0.03292 0.6010636,0.06668 0.100274,0.26139 -0.104685,0.383619 -0.7074456,0.422014 -0.471999,0.03003 -0.633047,0.0051 -0.756854,-0.119106 z M 23.733979,18.10483 c 0.09637,-0.180153 0.02155,-0.28606 -0.770597,-1.089063 -0.927912,-0.940722 -2.203219,-2.049704 -2.940357,-2.556857 l -0.442765,-0.304639 -0.23124,0.23124 -0.23124,0.231223 0.844691,0.850341 c 1.124811,1.132328 3.193094,2.82724 3.456944,2.832873 0.119107,0.0017 0.253348,-0.08076 0.314564,-0.195118 z M 16.378224,13.974033 C 18.070065,13.34779 19.073667,11.435059 18.626406,9.6892463 17.998771,7.2393812 15.20935,6.1008265 13.109153,7.4372815 11.91286,8.1985294 11.164898,9.7505812 11.440557,10.899656 c 0.129795,0.541205 0.238756,0.522542 0.387028,-0.06634 0.0587,-0.233497 0.167123,-0.447635 0.24064,-0.475867 0.07364,-0.02816 0.268143,0.0716 0.432432,0.221959 0.164238,0.150325 0.399618,0.356387 0.523001,0.457967 l 0.224317,0.184717 -0.06515,-0.821836 c -0.05633,-0.7096354 -0.04445,-0.8297771 0.08687,-0.8801514 0.08365,-0.032067 0.196237,-0.013573 0.250344,0.040042 0.130814,0.1308137 0.284804,1.6629294 0.211745,2.1075094 -0.08059,0.490747 -0.312392,0.460868 -0.925842,-0.119276 l -0.498076,-0.471065 -0.122331,0.306911 c -0.06736,0.16882 -0.19846,0.417519 -0.291387,0.552744 -0.168141,0.244525 -0.167123,0.248495 0.192726,0.750423 0.981714,1.369506 2.686602,1.880647 4.291437,1.286606 z m -1.157421,-1.998074 c -0.343017,-0.149138 -0.828386,-0.820462 -0.74686,-1.032919 0.09179,-0.239232 0.295561,-0.162033 0.61233,0.23219 0.35201,0.438031 0.750712,0.509664 0.983869,0.176777 0.238739,-0.340829 0.06379,-0.582724 -0.51428,-0.711061 -0.617878,-0.137091 -1.208746,-0.6934146 -1.208746,-1.1379099 0,-0.5938368 0.798507,-1.1696718 1.294106,-0.93324 0.167971,0.080083 0.263681,0.2078599 0.283345,0.3782741 0.03326,0.2877054 -0.134207,0.3400309 -0.4523,0.1413331 -0.159487,-0.099595 -0.220008,-0.08144 -0.43043,0.1289474 -0.206994,0.2069776 -0.22844,0.2755403 -0.138618,0.4432398 0.127251,0.2378062 0.490797,0.4339085 0.962643,0.5192855 0.940671,0.17021 1.113817,1.351979 0.262578,1.792165 -0.330903,0.17111 -0.519302,0.171704 -0.907569,0.0034 z m 3.844686,1.981583 c 0.02341,-0.06108 -0.137771,-0.268007 -0.358152,-0.459766 -0.350075,-0.304519 -0.415787,-0.330563 -0.51937,-0.205756 -0.09943,0.119786 -0.06108,0.201701 0.236449,0.506475 0.339437,0.347598 0.54879,0.399551 0.641073,0.158979 z"
       id="path3" />
  </g>
</svg>
