<?xml version="1.0" encoding="UTF-8" standalone="no"?>
<!-- Created with Inkscape (http://www.inkscape.org/) -->

<svg
   width="100"
   height="100"
   viewBox="0 0 26.458333 26.458333"
   version="1.1"
   id="svg1"
   inkscape:version="1.4.2 (f4327f4, 2025-05-13)"
   sodipodi:docname="icon_corpus_p_01.svg"
   xmlns:inkscape="http://www.inkscape.org/namespaces/inkscape"
   xmlns:sodipodi="http://sodipodi.sourceforge.net/DTD/sodipodi-0.dtd"
   xmlns="http://www.w3.org/2000/svg"
   xmlns:svg="http://www.w3.org/2000/svg">
  <sodipodi:namedview
     id="namedview1"
     pagecolor="#ffffff"
     bordercolor="#666666"
     borderopacity="1.0"
     inkscape:showpageshadow="2"
     inkscape:pageopacity="0.0"
     inkscape:pagecheckerboard="0"
     inkscape:deskcolor="#d1d1d1"
     inkscape:document-units="mm"
     inkscape:zoom="7.4566191"
     inkscape:cx="77.17975"
     inkscape:cy="66.182809"
     inkscape:window-width="2400"
     inkscape:window-height="1261"
     inkscape:window-x="2391"
     inkscape:window-y="-9"
     inkscape:window-maximized="1"
     inkscape:current-layer="layer1" />
  <defs
     id="defs1" />
  <g
     inkscape:label="Calque 1"
     inkscape:groupmode="layer"
     id="layer1">
    <path
       id="path8"
       style="fill:#ffffff;stroke-width:0.328666"
       d="m 12.877151,2.5459549 c -0.13487,-0.00336 -0.329163,0.028313 -0.604097,0.080099 C 11.895664,2.6971123 9.8261052,3.0668167 7.6738513,3.4471919 2.2095918,4.4128958 2.1664741,4.4226124 1.8721383,4.7520218 L 1.6302926,5.0228063 v 7.5530277 7.553544 l 0.4289143,0.184485 c 0.2360586,0.101508 0.4627293,0.185002 0.5038453,0.185002 0.04108,0 0.8028517,0.21531 1.6929199,0.478523 0.890051,0.263213 1.7129899,0.486677 1.8288289,0.495577 0.12072,0.01 0.5793743,-0.190099 1.0738363,-0.469222 0.732577,-0.413536 2.2125619,-1.02681 2.4784019,-1.02681 0.04398,0 0.080098,0.351579 0.080098,0.781347 v 0.781348 l 0.3260788,0.208773 c 0.262105,0.16786 0.641572,0.254295 1.932698,0.4408 0.882385,0.127493 1.621794,0.249286 1.644861,0.270784 0.07209,0.07206 0.148807,0.03871 0.492476,-0.212907 0.144838,-0.106053 1.163862,-0.651003 2.431376,-1.310514 A 3.6902335,3.6127579 0 0 1 16.107445,20.14023 c -0.111566,0.08646 -0.22176,0.17258 -0.330213,0.256832 -0.995486,0.773317 -1.827029,1.406116 -1.847949,1.406116 -0.119003,0 0.04705,-13.9760107 0.183452,-15.4362677 l 0.04857,-0.5229655 2.613794,-0.8521443 c 1.43741,-0.4685775 2.629131,-0.8362912 2.647901,-0.8175212 0.01895,0.018877 -0.02427,2.9659579 -0.0956,6.5489547 -0.0342,1.713916 -0.06549,3.306764 -0.08888,4.518587 a 3.6902335,3.6127579 0 0 1 0.312642,-0.01292 3.6902335,3.6127579 0 0 1 0.148312,0.0026 c 0.01908,-1.224154 0.04657,-2.778351 0.07906,-4.46071 0.09368,-4.8521175 0.108515,-7.0951742 0.04703,-7.1566692 -0.06155,-0.061549 -0.349318,0.00177 -0.91829,0.2010213 -0.45576,0.1595652 -0.857255,0.2615395 -0.891935,0.2268595 C 17.980654,4.0072894 17.9287,3.7339716 17.9001,3.4342728 l -0.05219,-0.5451864 -0.39119,0.012402 c -0.215215,0.00681 -1.253945,0.2125557 -2.308387,0.4568196 -1.054425,0.2442639 -1.950513,0.4439006 -1.991093,0.4439006 -6.34e-4,0 -0.0014,1.218e-4 -0.0021,0 -0.03821,-0.011387 -0.04757,-0.2579486 -0.01964,-0.5575887 0.04792,-0.5130978 0.03833,-0.6912647 -0.258382,-0.6986654 z M 12.6074,3.0249955 c 0.08475,0.00264 0.07918,0.090562 0.04754,0.4190958 -0.02359,0.2470705 -0.06415,0.4703325 -0.09043,0.4966105 -0.107366,0.107366 -2.8287438,0.8206197 -4.4126507,1.1565186 -0.932651,0.197803 -1.8129217,0.35655 -1.9564697,0.35295 C 5.9083646,5.4424834 3.3192257,4.8250329 3.2394967,4.7453039 3.2121278,4.7179539 3.318186,4.6737547 3.4751412,4.6471187 4.8541308,4.4124008 12.328849,3.0841203 12.490095,3.0451493 c 0.05068,-0.012254 0.08905,-0.021035 0.117305,-0.020154 z m 4.849317,0.3203938 0.01447,0.3152263 c 0.0073,0.1735088 0.0181,0.3764315 0.0217,0.4506185 0.0053,0.09959 -0.458448,0.29317 -1.769918,0.738973 -0.977556,0.3322872 -1.818883,0.599946 -1.869653,0.596346 -0.0997,-0.00854 -2.184108,-0.5429663 -2.392619,-0.6133993 -0.209459,-0.070791 4.349883,-1.2294919 5.62653,-1.4298869 z m -6.844027,1.7843872 0.70435,0.1560629 c 0.387507,0.085825 1.071816,0.2464291 1.520837,0.3570841 l 0.816488,0.2010213 -0.05478,1.7404623 c -0.03039,0.957052 -0.08068,4.5867019 -0.112138,8.0661749 h -5.17e-4 c -0.03129,3.479473 -0.08044,6.32196 -0.109037,6.31486 -0.281519,-0.06219 -1.419373,-0.250013 -2.017448,-0.333313 l -0.748275,-0.104387 -0.05581,-0.840775 c -0.07265,-1.096345 -0.07258,-13.0362578 0,-14.4600998 z m -8.0956299,0.01757 c 0.054738,-0.054702 3.2644802,0.6904771 3.3522502,0.7782471 0.0202,0.0202 0.00765,3.4049671 -0.027389,7.5220214 -0.045764,5.360791 -0.09103,7.483497 -0.1596802,7.478097 C 5.6295776,20.921493 5.0192343,20.744629 4.3257353,20.532454 3.6322362,20.320278 2.91706,20.106528 2.7361682,20.057548 L 2.4069893,19.968664 2.431794,12.588236 C 2.44538,8.5290826 2.4836311,5.1807765 2.5170601,5.1473465 Z m 7.3597571,0.090434 c 0.02538,0.025206 -1.74e-4,0.092158 -0.056844,0.1488281 -0.072579,0.072418 -0.102836,0.6219927 -0.102836,1.8557007 v 1.7528646 l -0.804602,0.329696 c -0.442406,0.181285 -0.8534124,0.367785 -0.9131224,0.414445 -0.163965,0.12796 -0.1553402,4.6114533 0.0093,4.7480303 0.123473,0.102485 0.7748346,-0.0772 1.3420366,-0.37052 0.148875,-0.07704 0.292564,-0.140043 0.318844,-0.140043 0.02628,0 0.047542,1.112854 0.047542,2.473234 v 2.473234 l -1.108459,0.68678 C 7.9988764,19.987563 7.2354885,20.443052 6.9126575,20.622371 L 6.3256132,20.94845 V 13.440897 5.9328283 l 1.7528646,-0.37052 C 9.0423212,5.3583373 9.8514372,5.2124003 9.8768172,5.2377803 Z M 3.8296415,8.3321651 c -0.1421245,-0.00353 -0.196866,0.033082 -0.225826,0.1085205 -0.08023,0.209047 0.060111,0.2986569 0.6785116,0.4320149 V 8.8721838 C 5.0319221,9.0337898 5.1449664,9.023841 5.1783964,8.790535 5.2017254,8.627824 5.1313451,8.5893935 4.5805001,8.4649735 4.2012598,8.379346 3.971766,8.3356953 3.8296415,8.3321651 Z M 17.939374,9.0587357 c -0.253294,0.014513 -2.549482,0.925109 -2.809647,1.1193123 -0.08494,0.06298 -0.103279,0.602889 -0.08165,2.356962 0.01555,1.251388 0.05825,2.324303 0.09508,2.383833 0.03992,0.06471 0.143017,0.08562 0.255281,0.05219 0.511839,-0.152629 1.237563,-0.484533 1.874304,-0.857829 l 0.705384,-0.413928 v -0.716753 c 0,-0.394337 0.0259,-1.426711 0.05736,-2.293916 0.04988,-1.3789363 0.03995,-1.583095 -0.07803,-1.628325 -0.0038,-0.00145 -0.0099,-0.00202 -0.01809,-0.00155 z m -6.77478,0.324011 c -0.139913,0.00273 -0.170811,0.042694 -0.201021,0.12144 -0.07662,0.19968 0.06854,0.300765 0.54622,0.380855 0.233716,0.03915 0.613359,0.075732 0.843876,0.081132 0.387716,0.00946 0.41693,-0.0047 0.39119,-0.185001 -0.02467,-0.173402 -0.105714,-0.206487 -0.72347,-0.297657 -0.467943,-0.069091 -0.716882,-0.103495 -0.856795,-0.100769 z m -1.5285888,0.159164 c 0.04791,0 0.081132,0.7950603 0.081132,1.9378663 v 1.937866 l -0.56689,0.27957 c -0.311783,0.153702 -0.599714,0.279569 -0.639754,0.279569 -0.096175,0 -0.219581,-3.828715 -0.126091,-3.908805 0.09782,-0.083858 1.149886,-0.5260663 1.251603,-0.5260663 z m 7.9488688,0.101285 c 0.01466,0.015964 0.0011,0.8862423 -0.02946,1.9342493 l -0.05529,1.905827 -0.869715,0.462504 c -0.478285,0.254543 -0.912082,0.463394 -0.964282,0.464055 -0.1094,0.0016 -0.249151,-3.825171 -0.143144,-3.917591 0.09861,-0.08602 2.03168,-0.8819343 2.06189,-0.8490443 z m -13.9361,0.275953 c -0.2183128,-0.00161 -0.2908114,0.065752 -0.2635498,0.2092893 0.018609,0.09807 0.168377,0.18882 0.4196126,0.254248 0.2148033,0.05595 0.5397576,0.104921 0.7224366,0.108521 0.295447,0.0062 0.3290441,-0.01444 0.3043741,-0.185519 C 4.8081035,10.142459 4.7133823,10.095043 4.2094633,9.9951127 3.9632507,9.9462367 3.7797617,9.9201157 3.648774,9.9191487 Z m 7.594885,1.4598593 c -0.132111,2.91e-4 -0.201374,0.02051 -0.241329,0.06046 -0.17165,0.171632 0.09295,0.342912 0.671277,0.434082 v 5.17e-4 c 0.795681,0.125315 0.999357,0.119055 1.057817,-0.03307 0.08556,-0.222956 -0.07373,-0.29705 -0.869715,-0.403593 -0.291314,-0.03932 -0.485939,-0.05869 -0.61805,-0.05839 z m -7.8475827,1.163236 c -0.1608825,2.43e-4 -0.2010214,0.0699 -0.2010214,0.218592 0,0.118128 0.093309,0.19003 0.3260783,0.25063 0.1793545,0.04684 0.4631295,0.123019 0.6304525,0.169499 0.449075,0.1246 0.608166,0.115955 0.666626,-0.03617 C 4.8980837,12.936638 4.7550395,12.849135 4.0291125,12.663167 3.7192857,12.583779 3.521207,12.542056 3.3960763,12.542244 Z m 7.6310587,0.887285 c -0.146053,-0.0056 -0.207636,0.02009 -0.262516,0.0739 -0.210371,0.206098 0.01694,0.329736 0.890901,0.484725 1.046148,0.185558 1.101567,0.187064 1.163237,0.02636 0.08631,-0.224904 -0.0763,-0.299854 -1.023194,-0.471289 -0.391843,-0.07097 -0.622375,-0.108057 -0.768428,-0.113688 z m -7.3597575,2.641699 c -0.3705061,0.02245 -0.7332886,0.309231 -0.7332886,0.736389 0,0.418023 0.081525,0.565902 0.3829224,0.697115 0.3961601,0.172382 0.5406957,0.151592 0.8480103,-0.12299 0.330607,-0.295409 0.3680738,-0.67997 0.1012858,-1.038696 C 4.114972,16.139542 3.8896812,16.057756 3.6673775,16.071228 Z m 0.039791,0.435115 c 0.1487862,-0.0096 0.2707845,0.1051 0.2707845,0.290939 0,0.278623 -0.2645509,0.433684 -0.47594,0.279052 -0.1767982,-0.129211 -0.1507548,-0.390179 0.05116,-0.517281 0.052074,-0.03279 0.1044004,-0.0495 0.1539958,-0.05271 z m 7.9581706,0.77463 c -0.762091,0 -1.085248,0.70224 -0.563273,1.224215 0.344979,0.344888 0.919378,0.361297 1.226281,0.03462 0.496161,-0.528142 0.111471,-1.258838 -0.663008,-1.258838 z m -0.02325,0.4408 c 0.309898,-0.01402 0.550416,0.191669 0.42013,0.435116 h -5.17e-4 c -0.10876,0.203251 -0.453581,0.219763 -0.642338,0.03101 -0.174726,-0.174921 -0.174851,-0.351706 5.17e-4,-0.419096 0.07523,-0.02887 0.150694,-0.04379 0.222208,-0.04703 z" />
    <g
       id="g3">
      <path
         style="fill:#ffffff;stroke-width:0.999999"
         d="m 19.706968,24.09636 c -1.490788,-0.251025 -2.926926,-1.265902 -3.613082,-2.553263 -0.565318,-1.060649 -2.039211,-4.673777 2.793758,-6.670056 0.08729,-0.03606 0.511393,-0.08622 0.942001,-0.112519 2.498948,-0.15267 4.633749,1.306212 5.213697,3.562946 0.375901,1.462723 -0.102766,3.071014 -1.287918,4.327337 -0.712457,0.755244 -1.713796,1.299024 -2.663419,1.446378 -0.660401,0.102472 -0.771939,0.102405 -1.385031,-8.23e-4 z m 1.385031,-1.197966 c 1.071281,-0.315076 1.994975,-1.111965 2.482975,-2.142108 0.270839,-0.571725 0.289522,-0.67568 0.289522,-1.611077 0,-0.935396 -0.01869,-1.039352 -0.289522,-1.611077 -0.402545,-0.849752 -0.995894,-1.454077 -1.834175,-1.868104 -0.671857,-0.331829 -0.706969,-0.338681 -1.735359,-0.338681 -0.997108,0 -1.079463,0.0146 -1.645942,0.29183 -2.050945,1.003715 -3.23137,3.997651 -1.118699,6.212569 1.012013,1.060989 2.484137,1.468716 3.8512,1.066648 z m -5.453011,-3.730459 c 0.002,-1.243204 0.473678,-2.349138 1.36398,-3.198344 l 0.525427,-0.501172 -1.890421,4.358552 z"
         id="path1"
         sodipodi:nodetypes="ssscsssssssssssssscsccc" />
      <path
         style="fill:#ffffff;fill-opacity:1;stroke:none;stroke-width:0.600001;stroke-dasharray:none;stroke-opacity:1"
         d="m 20.845206,21.91275 c 0.307335,-0.05671 0.631085,-0.173218 0.909019,-0.327129 0.278744,-0.154353 0.304525,-0.207033 0.326845,-0.667818 0.02738,-0.565793 -0.134433,-0.975828 -0.558738,-1.415657 -0.429312,-0.445014 -0.883421,-0.645911 -1.460018,-0.645911 -0.521749,0 -0.927816,0.186291 -1.284713,0.589406 -0.398653,0.45028 -0.562514,1.127665 -0.424596,1.755261 l 0.04494,0.20449 0.253147,0.138118 c 0.298836,0.163057 0.692211,0.304739 1.012088,0.364527 0.296452,0.05541 0.894375,0.05779 1.182025,0.0047 z m -2.518089,-2.177879 c 0.211622,-0.421224 0.680535,-0.854361 1.101727,-0.999425 l 0.189763,-0.06536 -0.132454,-0.0908 c -0.152269,-0.104396 -0.298424,-0.280605 -0.394398,-0.475521 -0.09138,-0.185599 -0.11237,-0.563608 -0.04325,-0.778996 0.158988,-0.495404 0.753688,-0.913786 1.23472,-0.868645 0.796039,0.07471 1.214913,1.298963 0.697414,2.038342 -0.04857,0.06938 -0.124813,0.147843 -0.169471,0.174367 l -0.08119,0.04822 0.284062,0.144234 c 0.632259,0.321026 1.074882,0.853258 1.234856,1.484838 0.045,0.177673 0.06539,0.766449 0.02868,0.827945 -0.0098,0.01645 0.02081,-0.28112 0.01,0.02984 -0.0458,1.308988 -5.475434,1.546624 -3.960361,-1.469047 z m 2.269249,-1.192687 c 0.477255,-0.229981 0.543968,-1.129404 0.120766,-1.628257 -0.206986,-0.243989 -0.510436,-0.302656 -0.853209,-0.164962 -0.233416,0.09377 -0.535731,0.40076 -0.605843,0.61522 -0.107763,0.329636 -0.0304,0.668015 0.209542,0.916343 0.298629,0.309069 0.792672,0.423596 1.128738,0.261656 z"
         id="path1-5"
         sodipodi:nodetypes="ccccssscscccsccsscscccscssssccscs" />
      <path
         style="fill:#ffffff;fill-opacity:1;stroke:none;stroke-width:0.264583px;stroke-linecap:butt;stroke-linejoin:miter;stroke-opacity:1"
         d="m 19.692632,18.677096 -0.415506,-0.632398 -0.109334,-0.602289 0.400925,-0.579706 c 0,0 0.415503,-0.301142 0.524847,-0.30867 0.109349,-0.0076 0.656059,0.180684 0.656059,0.180684 l 0.364479,0.722745 -0.218687,1.008834 -0.131216,0.2108 0.969511,0.782977 0.437371,1.174461 -0.189526,0.948608 -2.318078,0.451714 -1.15175,-0.572172 -0.357188,-0.27856 0.174949,-1.076589 0.422794,-0.707688 0.583165,-0.459248 z"
         id="path2" />
    </g>
  </g>
</svg>
